<svg width="127px" height="39px" viewBox="0 0 127 39" version="1.1" xmlns="http://www.w3.org/2000/svg" xmlns:xlink="http://www.w3.org/1999/xlink">
    <g id="Symbols" stroke="none" stroke-width="1" fill="none" fill-rule="evenodd">
        <g id="main-menu" transform="translate(-633.000000, -12.000000)">
            <g id="mishe">
                <text fill="#40C0E7" font-family="Roboto-Bold, Roboto" font-size="30" font-weight="bold">
                    <tspan x="678.323242" y="40">mishe</tspan>
                </text>
                <g id="logo" transform="translate(633.000000, 12.000000)" fill-rule="nonzero">
                    <g id="Icon" fill="#40C0E7">
                        <g id="Icon-Group">
                            <path d="M19.5030469,0.100546875 C8.7871875,0.100546875 0.10359375,8.7871875 0.10359375,19.5 C0.10359375,30.2128125 8.79023438,38.8964062 19.5030469,38.8964062 C30.2158594,38.8964062 38.8994531,30.2128125 38.8994531,19.5 C38.8994531,8.7871875 30.2158594,0.100546875 19.5030469,0.100546875 Z M19.5030469,37.0408594 C9.83226562,37.0408594 1.9621875,29.1707812 1.9621875,19.5030469 C1.9621875,9.83226562 9.83226562,1.9621875 19.5030469,1.9621875 C29.1707812,1.9621875 37.0408594,9.83226562 37.0408594,19.5030469 C37.0408594,29.1707812 29.1707812,37.0408594 19.5030469,37.0408594 Z" id="Icon-Shape"></path>
                            <path d="M29.2774219,8.54953125 C29.2774219,8.53429687 29.2682813,8.52210937 29.2652344,8.50382812 C29.2530469,8.44898437 29.2347656,8.3971875 29.2042969,8.3484375 C29.1982031,8.33929687 29.20125,8.33015625 29.1951563,8.3240625 C29.1890625,8.311875 29.1738281,8.30578125 29.1646875,8.29664062 C29.1311719,8.25703125 29.0976563,8.22351562 29.0519531,8.19609375 C29.0336719,8.18390625 29.0214844,8.17171875 29.0001563,8.16257812 C28.9361719,8.13515625 28.8660938,8.11382812 28.7960156,8.11382812 L24.2074219,8.11382812 C24.1434375,8.11382812 24.0855469,8.1290625 24.0276563,8.1534375 C24.009375,8.15953125 24.0002344,8.16867187 23.9819531,8.17476562 C23.9423438,8.19609375 23.9088281,8.22351562 23.8722656,8.25398437 C23.8661719,8.26007812 23.8539844,8.26617187 23.8478906,8.27226562 C23.8417969,8.27835937 23.8417969,8.28445312 23.8357031,8.29054687 C23.8021875,8.33320312 23.7717188,8.37890625 23.7534375,8.43070312 C23.7503906,8.43679687 23.7473438,8.44289062 23.7442969,8.45203125 C23.7442969,8.45203125 23.74125,8.45507812 23.74125,8.458125 L19.5,22.2817969 L15.25875,8.458125 C15.25875,8.45507812 15.25875,8.45507812 15.2557031,8.45203125 C15.2335305,8.39452802 15.2038175,8.34022495 15.1673438,8.29054687 C15.16125,8.28445312 15.1582031,8.27835937 15.1551563,8.27226562 C15.1490625,8.263125 15.136875,8.26007812 15.1277344,8.25398437 C15.0942188,8.22351562 15.0607031,8.19914062 15.0180469,8.17476562 C14.9997656,8.165625 14.990625,8.15648437 14.9723438,8.1534375 C14.9144531,8.1290625 14.8565625,8.11382812 14.7925781,8.11382812 L10.2009375,8.11382812 C10.1278125,8.11382812 10.0607812,8.13515625 9.99679687,8.16257812 C9.97851562,8.17171875 9.96328125,8.18390625 9.945,8.19609375 C9.89929687,8.22351562 9.86273437,8.25703125 9.83226562,8.29664062 C9.823125,8.30578125 9.80789063,8.311875 9.80179687,8.3240625 C9.79570312,8.33320312 9.79570312,8.34234375 9.78960937,8.35148437 C9.7621875,8.3971875 9.74390625,8.44898437 9.73171875,8.50382812 C9.72867187,8.52210937 9.71953125,8.53429687 9.71953125,8.54953125 C9.71953125,8.55257812 9.71648437,8.555625 9.71648437,8.56171875 L7.97671875,29.1342187 C7.96453125,29.2713281 8.01328125,29.4053906 8.1046875,29.5059375 C8.19609375,29.6064844 8.32710937,29.664375 8.46117187,29.664375 L12.7664063,29.664375 C13.0132031,29.664375 13.2234375,29.4754687 13.2478125,29.225625 L14.113125,20.4567187 L17.4372656,29.3475 C17.4525,29.3871094 17.4738281,29.420625 17.4982031,29.4541406 C17.50125,29.4571875 17.50125,29.4632812 17.5042969,29.469375 C17.5467735,29.5230354 17.5996208,29.5675929 17.6596875,29.6003906 C17.6749219,29.6064844 17.6871094,29.6125781 17.7023438,29.6217187 C17.7632812,29.6460937 17.8303125,29.6674219 17.8973438,29.6674219 L21.10875,29.6674219 C21.1788281,29.6674219 21.2428125,29.6460937 21.30375,29.6217187 C21.3189844,29.615625 21.3311719,29.6064844 21.3464063,29.6003906 C21.4042969,29.566875 21.4560938,29.5272656 21.49875,29.4724219 C21.49875,29.469375 21.5017969,29.469375 21.5017969,29.469375 C21.5048438,29.4663281 21.5048438,29.4602344 21.5078906,29.4541406 C21.5322656,29.4236719 21.5535938,29.3871094 21.5688281,29.3475 L24.8929688,20.4567188 L25.7552344,29.225625 C25.7796094,29.4754687 25.9898438,29.664375 26.2396875,29.664375 L30.541875,29.664375 C30.6789844,29.664375 30.81,29.6064844 30.8983594,29.5059375 C30.9928125,29.4053906 31.0385156,29.2713281 31.0263281,29.1342187 L29.2804688,8.56171875 C29.2804688,8.55867187 29.2774219,8.555625 29.2774219,8.54953125 L29.2774219,8.54953125 Z" id="Icon-Path"></path>
                        </g>
                    </g>
                    <rect id="ViewBox" x="0" y="0" width="39" height="39"></rect>
                </g>
            </g>
        </g>
    </g>
</svg>
