<svg width="42px" height="52px" viewBox="0 0 42 52" version="1.1" xmlns="http://www.w3.org/2000/svg" xmlns:xlink="http://www.w3.org/1999/xlink">
    <g id="homeView" stroke="none" stroke-width="1" fill="none" fill-rule="evenodd">
        <g id="Hospital-Desktop-HD" transform="translate(-110.000000, -605.000000)">
            <g id="booking-selector" transform="translate(90.000000, 275.000000)">
                <g id="afternoon-table" transform="translate(1.000000, 330.000000)">
                    <text id="Өдөр" font-family="NotoSans-SemiBold, Noto Sans" font-size="16" font-weight="500" fill="#4A4A4A" fill-opacity="0.955276268">
                        <tspan x="19.268" y="48">Өдөр</tspan>
                    </text>
                    <g id="sun-icon" transform="translate(27.000000, 0.000000)" fill-rule="nonzero">
                        <g id="Icon" fill="#40C0E7">
                            <path d="M27,13.5 L23.2875,10.8 L25.14375,6.75 L20.5875,6.4125 L20.25,1.85625 L16.2,3.7125 L13.5,0 L10.8,3.7125 L6.75,1.85625 L6.4125,6.4125 L1.85625,6.75 L3.7125,10.8 L0,13.5 L3.7125,16.2 L1.85625,20.25 L6.4125,20.5875 L6.75,25.14375 L10.8,23.2875 L13.5,27 L16.2,23.2875 L20.25,25.14375 L20.5875,20.5875 L25.14375,20.25 L23.2875,16.2 L27,13.5 Z M13.5,21.9375 C8.775,21.9375 5.0625,18.225 5.0625,13.5 C5.0625,8.775 8.775,5.0625 13.5,5.0625 C18.225,5.0625 21.9375,8.775 21.9375,13.5 C21.9375,18.225 18.225,21.9375 13.5,21.9375 Z" id="Icon-Shape"></path>
                        </g>
                        <rect id="ViewBox" x="0" y="0" width="27" height="27"></rect>
                    </g>
                </g>
            </g>
        </g>
    </g>
</svg>
